<svg height="480pt" viewBox="-104 0 480 480" width="480pt" xmlns="http://www.w3.org/2000/svg"><path d="m56.003906 8h160v144h-160zm0 0" fill="#f6bf9b"/><path d="m112.003906 152h48v32h-48zm0 0" fill="#eda37a"/><path d="m56.003906 184h160v64h-160zm0 0" fill="#fdbd40"/><path d="m24.003906 248h224c8.835938 0 16 7.164062 16 16s-7.164062 16-16 16h-224c-8.835937 0-16-7.164062-16-16s7.164063-16 16-16zm0 0" fill="#143441"/><path d="m24.003906 280h224c8.835938 0 16 7.164062 16 16s-7.164062 16-16 16h-224c-8.835937 0-16-7.164062-16-16s7.164063-16 16-16zm0 0" fill="#5a6470"/><path d="m24.003906 312h224c8.835938 0 16 7.164062 16 16s-7.164062 16-16 16h-224c-8.835937 0-16-7.164062-16-16s7.164063-16 16-16zm0 0" fill="#143441"/><path d="m24.003906 216h32v32h-32zm0 0" fill="#d3843d"/><path d="m216.003906 216h32v32h-32zm0 0" fill="#d3843d"/><path d="m184.003906 344h64v32h-64zm0 0" fill="#d3843d"/><path d="m88.003906 344h48v96h-48zm0 0" fill="#fdbd40"/><path d="m136.003906 344h48v96h-48zm0 0" fill="#efa522"/><path d="m88.003906 440h48v32h-48zm0 0" fill="#5a6470"/><path d="m136.003906 440h48v32h-48zm0 0" fill="#3c4751"/><path d="m24.003906 344h64v32h-64zm0 0" fill="#d3843d"/><path d="m24.003906 376h32v96h-32zm0 0" fill="#994c13"/><path d="m216.003906 376h32v96h-32zm0 0" fill="#994c13"/><g fill="#5a6470"><path d="m80.003906 208h16v40h-16zm0 0"/><path d="m176.003906 208h16v40h-16zm0 0"/><path d="m56.003906 40h160v48h-160zm0 0"/></g><path d="m120.003906 88h16v24h-16zm0 0" fill="#eda37a"/><path d="m216.003906 64 32-48 16 36zm0 0" fill="#143441"/><path d="m216.003906 64 32 48 16-36zm0 0" fill="#143441"/><path d="m271.203125 55.503906c1.035156-2.121094 1.082031-4.59375.128906-6.75l-16-36c-1.183593-2.667968-3.726562-4.480468-6.632812-4.726562-2.90625-.25-5.71875 1.105468-7.335938 3.53125l-17.359375 26.042968v-29.601562c0-4.417969-3.582031-8-8-8h-160c-4.417968 0-8 3.582031-8 8v144c0 4.417969 3.582032 8 8 8h48v16h-48c-4.417968 0-8 3.582031-8 8v24h-24c-4.417968 0-8 3.582031-8 8v25.472656c-7.570312 2.617188-13.308594 8.867188-15.277344 16.628906-1.964843 7.761719.109376 15.992188 5.515626 21.898438-8.320313 9.042969-8.320313 22.957031 0 32-5.40625 5.90625-7.480469 14.136719-5.515626 21.898438 1.96875 7.761718 7.707032 14.011718 15.277344 16.628906v121.472656c0 4.417969 3.582032 8 8 8h32c4.417969 0 8-3.582031 8-8v-88h16v88c0 4.417969 3.582032 8 8 8h96c4.417969 0 8-3.582031 8-8v-88h16v88c0 4.417969 3.582032 8 8 8h32c4.417969 0 8-3.582031 8-8v-121.472656c7.566406-2.617188 13.308594-8.867188 15.273438-16.628906 1.964844-7.761719-.105469-15.992188-5.515625-21.898438 8.320312-9.042969 8.320312-22.957031 0-32 5.410156-5.90625 7.480469-14.136719 5.515625-21.898438-1.964844-7.761718-7.707032-14.011718-15.273438-16.628906v-25.472656c0-4.417969-3.582031-8-8-8h-24v-24c0-4.417969-3.582031-8-8-8h-48v-16h48c4.417969 0 8-3.582031 8-8v-61.601562l17.34375 26.015624c1.476563 2.234376 3.976563 3.582032 6.65625 3.585938.226563.011719.453125.011719.679688 0 2.90625-.246094 5.445312-2.054688 6.632812-4.71875l16-36c.957032-2.160156.910156-4.632812-.125-6.757812-1.039062-2.125-2.960937-3.679688-5.253906-4.25l-16.96875-4.273438 16.96875-4.238281c2.300781-.570313 4.226562-2.128907 5.265625-4.257813zm-207.199219 24.496094v-32h144v32zm144-64v16h-144v-16zm-176 208h16v16h-16zm-8 32h224c4.417969 0 8 3.582031 8 8s-3.582031 8-8 8h-224c-4.417968 0-8-3.582031-8-8s3.582032-8 8-8zm232 40c0 4.417969-3.582031 8-8 8h-224c-4.417968 0-8-3.582031-8-8s3.582032-8 8-8h224c4.417969 0 8 3.582031 8 8zm-208 168h-16v-80h16zm-16-96v-16h48v16zm96-16v80h-32v-80zm48 0v80h-32v-80zm-80 96h32v16h-32zm80 16h-32v-16h32zm16-112h48v16h-48zm48 112h-16v-80h16zm8-128h-224c-4.417968 0-8-3.582031-8-8s3.582032-8 8-8h224c4.417969 0 8 3.582031 8 8s-3.582031 8-8 8zm-8-112v16h-16v-16zm-32 16h-16v-32h-16v32h-80v-32h-16v32h-16v-48h144zm-56-64h-32v-16h32zm-88-32v-48h56v16h16v-16h72v48zm182.589844-48.527344-12.457031-18.671875 18.691406 4.671875zm-12.457031-44.273437 12.457031-18.6875 6.207031 14.03125zm0 0"/><path d="m271.203125 55.503906c1.035156-2.121094 1.082031-4.59375.128906-6.75l-16-36c-1.183593-2.667968-3.726562-4.480468-6.632812-4.726562-2.90625-.25-5.71875 1.105468-7.335938 3.53125l-17.359375 26.042968v-29.601562c0-4.417969-3.582031-8-8-8h-160c-4.417968 0-8 3.582031-8 8v144c0 4.417969 3.582032 8 8 8h48v16h-48c-4.417968 0-8 3.582031-8 8v24h-24c-4.417968 0-8 3.582031-8 8v25.472656c-7.570312 2.617188-13.308594 8.867188-15.277344 16.628906-1.964843 7.761719.109376 15.992188 5.515626 21.898438-8.320313 9.042969-8.320313 22.957031 0 32-5.40625 5.90625-7.480469 14.136719-5.515626 21.898438 1.96875 7.761718 7.707032 14.011718 15.277344 16.628906v121.472656c0 4.417969 3.582032 8 8 8h32c4.417969 0 8-3.582031 8-8v-88h16v88c0 4.417969 3.582032 8 8 8h96c4.417969 0 8-3.582031 8-8v-88h16v88c0 4.417969 3.582032 8 8 8h32c4.417969 0 8-3.582031 8-8v-121.472656c7.566406-2.617188 13.308594-8.867188 15.273438-16.628906 1.964844-7.761719-.105469-15.992188-5.515625-21.898438 8.320312-9.042969 8.320312-22.957031 0-32 5.410156-5.90625 7.480469-14.136719 5.515625-21.898438-1.964844-7.761718-7.707032-14.011718-15.273438-16.628906v-25.472656c0-4.417969-3.582031-8-8-8h-24v-24c0-4.417969-3.582031-8-8-8h-48v-16h48c4.417969 0 8-3.582031 8-8v-61.601562l17.34375 26.015624c1.476563 2.234376 3.976563 3.582032 6.65625 3.585938.226563.011719.453125.011719.679688 0 2.90625-.246094 5.445312-2.054688 6.632812-4.71875l16-36c.957032-2.160156.910156-4.632812-.125-6.757812-1.039062-2.125-2.960937-3.679688-5.253906-4.25l-16.96875-4.273438 16.96875-4.238281c2.300781-.570313 4.226562-2.128907 5.265625-4.257813zm-207.199219 24.496094v-32h144v32zm144-64v16h-144v-16zm-176 208h16v16h-16zm-8 32h224c4.417969 0 8 3.582031 8 8s-3.582031 8-8 8h-224c-4.417968 0-8-3.582031-8-8s3.582032-8 8-8zm232 40c0 4.417969-3.582031 8-8 8h-224c-4.417968 0-8-3.582031-8-8s3.582032-8 8-8h224c4.417969 0 8 3.582031 8 8zm-208 168h-16v-80h16zm-16-96v-16h48v16zm96-16v80h-32v-80zm48 0v80h-32v-80zm-80 96h32v16h-32zm80 16h-32v-16h32zm16-112h48v16h-48zm48 112h-16v-80h16zm8-128h-224c-4.417968 0-8-3.582031-8-8s3.582032-8 8-8h224c4.417969 0 8 3.582031 8 8s-3.582031 8-8 8zm-8-112v16h-16v-16zm-32 16h-16v-32h-16v32h-80v-32h-16v32h-16v-48h144zm-56-64h-32v-16h32zm-88-32v-48h56v16h16v-16h72v48zm182.589844-48.527344-12.457031-18.671875 18.691406 4.671875zm-12.457031-44.273437 12.457031-18.6875 6.207031 14.03125zm0 0"/></svg>