<svg xmlns="http://www.w3.org/2000/svg" viewBox="0 0 153.5 153.5">
  <defs>
    <style>
      .cls-1 {
        fill: none;
        stroke: #fff;
        stroke-width: 3.5px;
      }
    </style>
  </defs>
  <path id="download" class="cls-1" d="M63.281,0H86.719A7.014,7.014,0,0,1,93.75,7.031V56.25h25.693a5.848,5.848,0,0,1,4.131,9.99L79.014,110.83a5.676,5.676,0,0,1-8,0L26.4,66.24a5.848,5.848,0,0,1,4.131-9.99H56.25V7.031A7.014,7.014,0,0,1,63.281,0ZM150,110.156v32.813A7.014,7.014,0,0,1,142.969,150H7.031A7.014,7.014,0,0,1,0,142.969V110.156a7.014,7.014,0,0,1,7.031-7.031H50.01L64.365,117.48a15.012,15.012,0,0,0,21.27,0L99.99,103.125h42.979A7.014,7.014,0,0,1,150,110.156Zm-36.328,25.781a5.859,5.859,0,1,0-5.859,5.859A5.877,5.877,0,0,0,113.672,135.938Zm18.75,0a5.859,5.859,0,1,0-5.859,5.859A5.877,5.877,0,0,0,132.422,135.938Z" transform="translate(1.75 1.75)"/>
</svg>
