<svg xmlns="http://www.w3.org/2000/svg" viewBox="0 0 30 30">
  <defs>
    <style>
      .cls-1 {
        fill: #fff;
      }
    </style>
  </defs>
  <path id="facebook" class="cls-1" d="M30,33.654V60.339a1.653,1.653,0,0,1-1.654,1.654H20.7V50.382h3.9l.583-4.527H20.692V42.962c0-1.312.362-2.2,2.243-2.2h2.4V36.708a32.23,32.23,0,0,0-3.5-.181c-3.455,0-5.826,2.109-5.826,5.987v3.342H12.1v4.527h3.911V62H1.654A1.658,1.658,0,0,1,0,60.346V33.654A1.658,1.658,0,0,1,1.654,32H28.339A1.659,1.659,0,0,1,30,33.654Z" transform="translate(0 -32)"/>
</svg>
