<svg xmlns="http://www.w3.org/2000/svg" viewBox="0 0 44 34.286">
  <defs>
    <style>
      .cls-1 {
        fill: #fff;
      }

      .cls-2 {
        fill: #d8df21;
      }
    </style>
  </defs>
  <g id="LOG_IN" data-name="LOG IN" transform="translate(-1342 -318)">
    <path id="user" class="cls-1" d="M15,17.143A8.571,8.571,0,1,0,6.429,8.571,8.571,8.571,0,0,0,15,17.143Zm6,2.143H19.882a11.657,11.657,0,0,1-9.763,0H9a9,9,0,0,0-9,9v2.786a3.215,3.215,0,0,0,3.214,3.214H26.786A3.215,3.215,0,0,0,30,31.071V28.286A9,9,0,0,0,21,19.286Z" transform="translate(1342 318)"/>
    <path id="arrow-right" class="cls-2" d="M6.378,38.629l.743-.743a.8.8,0,0,1,1.135,0l6.508,6.5a.8.8,0,0,1,0,1.135L8.256,52.034a.8.8,0,0,1-1.135,0l-.743-.743a.8.8,0,0,1,.013-1.148L10.425,46.3H.8a.8.8,0,0,1-.8-.8V44.424a.8.8,0,0,1,.8-.8h9.622L6.391,39.778A.8.8,0,0,1,6.378,38.629Z" transform="translate(1371 289.35)"/>
  </g>
</svg>
