<svg xmlns="http://www.w3.org/2000/svg" viewBox="0 0 153.5 123.5">
  <defs>
    <style>
      .cls-1 {
        fill: none;
        stroke: #fff;
        stroke-width: 3.5px;
      }
    </style>
  </defs>
  <path id="user-check" class="cls-1" d="M52.5,60a30,30,0,1,0-30-30A30,30,0,0,0,52.5,60Zm21,7.5H69.586a40.8,40.8,0,0,1-34.172,0H31.5A31.508,31.508,0,0,0,0,99v9.75A11.253,11.253,0,0,0,11.25,120h82.5A11.253,11.253,0,0,0,105,108.75V99A31.508,31.508,0,0,0,73.5,67.5Zm75.7-30.094-6.516-6.586a2.78,2.78,0,0,0-3.937-.023L114.187,55.172,103.523,44.437a2.78,2.78,0,0,0-3.937-.023L93,50.953a2.78,2.78,0,0,0-.023,3.938L112.125,74.18a2.78,2.78,0,0,0,3.937.023L149.18,41.344A2.8,2.8,0,0,0,149.2,37.406Z" transform="translate(1.75 1.75)"/>
</svg>
