<svg xmlns="http://www.w3.org/2000/svg" viewBox="0 0 30 31.431">
  <defs>
    <style>
      .cls-1 {
        fill: #fff;
      }
    </style>
  </defs>
  <g id="contact" transform="translate(-11.653)">
    <g id="Group_21" data-name="Group 21" transform="translate(21.797 14.783)">
      <g id="Group_20" data-name="Group 20" transform="translate(0)">
        <path id="Path_211" data-name="Path 211" class="cls-1" d="M183.972,240.817H182.5a5.6,5.6,0,0,0-5.593,5.592v3.078a1.3,1.3,0,0,0,1.3,1.3h10.058a1.3,1.3,0,0,0,1.3-1.3V246.41A5.6,5.6,0,0,0,183.972,240.817Zm2.991,7.37h-7.456V246.41a2.96,2.96,0,0,1,2.991-2.991h1.474a2.959,2.959,0,0,1,2.991,2.991v1.777Z" transform="translate(-176.905 -240.817)"/>
      </g>
    </g>
    <g id="Group_23" data-name="Group 23" transform="translate(23.922 6.633)">
      <g id="Group_22" data-name="Group 22" transform="translate(0)">
        <path id="Path_212" data-name="Path 212" class="cls-1" d="M215.714,108.05a4.205,4.205,0,1,0,4.205,4.205A4.21,4.21,0,0,0,215.714,108.05Zm0,5.809a1.6,1.6,0,1,1,1.6-1.6A1.606,1.606,0,0,1,215.714,113.859Z" transform="translate(-211.509 -108.05)"/>
      </g>
    </g>
    <g id="Group_25" data-name="Group 25" transform="translate(14.558)">
      <g id="Group_24" data-name="Group 24" transform="translate(0)">
        <path id="Path_213" data-name="Path 213" class="cls-1" d="M83.029,0H62a3.038,3.038,0,0,0-3.035,3.035V28.4A3.038,3.038,0,0,0,62,31.431H83.029A3.039,3.039,0,0,0,86.063,28.4V3.035A3.038,3.038,0,0,0,83.029,0Zm.434,28.4a.439.439,0,0,1-.434.434H62a.439.439,0,0,1-.434-.434V3.035A.439.439,0,0,1,62,2.6H83.029a.439.439,0,0,1,.434.434Z" transform="translate(-58.968)"/>
      </g>
    </g>
    <g id="Group_27" data-name="Group 27" transform="translate(11.653 14.393)">
      <g id="Group_26" data-name="Group 26" transform="translate(0)">
        <path id="Path_214" data-name="Path 214" class="cls-1" d="M15.858,234.461h-2.9a1.3,1.3,0,1,0,0,2.6h2.9a1.3,1.3,0,1,0,0-2.6Z" transform="translate(-11.653 -234.461)"/>
      </g>
    </g>
    <g id="Group_29" data-name="Group 29" transform="translate(11.653 9.191)">
      <g id="Group_28" data-name="Group 28" transform="translate(0)">
        <path id="Path_215" data-name="Path 215" class="cls-1" d="M15.858,149.716h-2.9a1.3,1.3,0,0,0,0,2.6h2.9a1.3,1.3,0,1,0,0-2.6Z" transform="translate(-11.653 -149.716)"/>
      </g>
    </g>
    <g id="Group_31" data-name="Group 31" transform="translate(11.653 3.988)">
      <g id="Group_30" data-name="Group 30" transform="translate(0)">
        <path id="Path_216" data-name="Path 216" class="cls-1" d="M15.858,64.971h-2.9a1.3,1.3,0,0,0,0,2.6h2.9a1.3,1.3,0,1,0,0-2.6Z" transform="translate(-11.653 -64.971)"/>
      </g>
    </g>
    <g id="Group_33" data-name="Group 33" transform="translate(11.653 19.595)">
      <g id="Group_32" data-name="Group 32" transform="translate(0)">
        <path id="Path_217" data-name="Path 217" class="cls-1" d="M15.858,319.206h-2.9a1.3,1.3,0,1,0,0,2.6h2.9a1.3,1.3,0,1,0,0-2.6Z" transform="translate(-11.653 -319.206)"/>
      </g>
    </g>
    <g id="Group_35" data-name="Group 35" transform="translate(11.653 24.798)">
      <g id="Group_34" data-name="Group 34" transform="translate(0)">
        <path id="Path_218" data-name="Path 218" class="cls-1" d="M15.858,403.95h-2.9a1.3,1.3,0,0,0,0,2.6h2.9a1.3,1.3,0,1,0,0-2.6Z" transform="translate(-11.653 -403.95)"/>
      </g>
    </g>
  </g>
</svg>
