<svg xmlns="http://www.w3.org/2000/svg" viewBox="0 0 18 16">
  <defs>
    <style>
      .cls-1 {
        fill: #f62e38;
      }
    </style>
  </defs>
  <path id="eye-slash" class="cls-1" d="M8.959,12.25,9.977,13.7Q9.49,13.75,9,13.75A10.186,10.186,0,0,1,.207,8.762a1.5,1.5,0,0,1,0-1.523,10.107,10.107,0,0,1,3-3.2L4.992,6.582A4.253,4.253,0,0,0,8.959,12.25Zm8.833-3.488a10.135,10.135,0,0,1-4.224,3.921h0l1.3,1.85a.75.75,0,0,1-.184,1.044l-.41.287a.75.75,0,0,1-1.044-.184L3.135,1.467A.75.75,0,0,1,3.32.423l.41-.287A.75.75,0,0,1,4.774.32L6.369,2.589A10.314,10.314,0,0,1,9,2.25a10.186,10.186,0,0,1,8.792,4.988,1.5,1.5,0,0,1,0,1.523ZM13.25,8A4.253,4.253,0,0,0,7.414,4.056l.6.846a3.256,3.256,0,0,1,2.512.232h0a1.338,1.338,0,1,0,1.338,1.338h0a3.249,3.249,0,0,1-.258,3.467h0l.6.846A4.234,4.234,0,0,0,13.25,8ZM8.187,11.148,5.765,7.687A3.251,3.251,0,0,0,8.187,11.148Z" transform="translate(0 0)"/>
</svg>
