<svg id="information-circular-button-interface-symbol" xmlns="http://www.w3.org/2000/svg" viewBox="0 0 30 30">
  <defs>
    <style>
      .cls-1 {
        fill: #fff;
      }
    </style>
  </defs>
  <g id="Group_36" data-name="Group 36">
    <path id="Path_219" data-name="Path 219" class="cls-1" d="M222.148,209.128c-.73.776-1.2,1.1-1.529,1.1-.226,0-.3-.2-.253-.653.152-1.176,1.027-4.956,1.276-6.306.25-1.155.176-1.755-.15-1.755-.623,0-2.152,1.026-3.154,2.052a1.311,1.311,0,0,0-.1.652c0,.051.074.077.074.077a2.96,2.96,0,0,1,1.354-.753c.124,0,.172.2.1.551-.3,1.5-.8,3.832-1.176,5.759-.351,1.68-.127,2.355.4,2.355a5.4,5.4,0,0,0,3.159-2.28,2.515,2.515,0,0,0,.073-.724C222.222,209.154,222.148,209.128,222.148,209.128Z" transform="translate(-205.439 -189.707)"/>
    <path id="Path_220" data-name="Path 220" class="cls-1" d="M258.334,128a1.9,1.9,0,0,0-1.2.451,1.98,1.98,0,0,0-.226.7.942.942,0,0,0,.4.853,2.2,2.2,0,0,0,1.126-.077,1.507,1.507,0,0,0,.627-1.077,1.2,1.2,0,0,0-.126-.676A.791.791,0,0,0,258.334,128Z" transform="translate(-241.853 -120.5)"/>
    <path id="Path_221" data-name="Path 221" class="cls-1" d="M15,0A15,15,0,1,0,30,15,15,15,0,0,0,15,0Zm0,27.656A12.656,12.656,0,1,1,27.656,15,12.656,12.656,0,0,1,15,27.656Z"/>
  </g>
</svg>
