<svg xmlns="http://www.w3.org/2000/svg" viewBox="0 0 30 29.9">
  <defs>
    <style>
      .cls-1 {
        fill: #fff;
      }
    </style>
  </defs>
  <g id="logout" transform="translate(0 -0.85)">
    <path id="Path_222" data-name="Path 222" class="cls-1" d="M14.95,30.75H3.738A3.742,3.742,0,0,1,0,27.013V4.588A3.742,3.742,0,0,1,3.738.85H14.95a1.246,1.246,0,0,1,0,2.492H3.738A1.248,1.248,0,0,0,2.492,4.587V27.013a1.247,1.247,0,0,0,1.246,1.246H14.95a1.246,1.246,0,0,1,0,2.492Z"/>
    <path id="Path_223" data-name="Path 223" class="cls-1" d="M186.3,237.23h-14.95a1.246,1.246,0,1,1,0-2.492H186.3a1.246,1.246,0,0,1,0,2.492Z" transform="translate(-160.133 -220.184)"/>
    <path id="Path_224" data-name="Path 224" class="cls-1" d="M341.44,124.59a1.246,1.246,0,0,1-.875-2.133l6.675-6.588-6.675-6.588a1.246,1.246,0,1,1,1.749-1.774l7.575,7.475a1.245,1.245,0,0,1,0,1.774l-7.575,7.475A1.24,1.24,0,0,1,341.44,124.59Z" transform="translate(-320.26 -100.069)"/>
  </g>
</svg>
