<svg xmlns="http://www.w3.org/2000/svg" viewBox="0 0 310 71.003">
  <defs>
    <style>
    @import url('https://fonts.googleapis.com/css?family=Roboto');
      .cls-1 {
        fill: #f62d38;
      }

      .cls-2, .cls-4 {
        fill: #fff;
      }

      .cls-3 {
        fill: #d8df21;
      }

      .cls-4 {
        font-size: 35px;
        font-family: 'Roboto', sans-serif;
        font-weight: 600;
      }
    </style>
  </defs>
  <g id="Group_17" data-name="Group 17" transform="translate(-795 -7794.86)">
    <g id="logo" transform="translate(2294 20516.244)">
      <g id="__x0023_Layer_x0020_2" transform="translate(-1499 -12721.384)">
        <g id="_1222026405200" transform="translate(0 0)">
          <path id="Path_27" data-name="Path 27" class="cls-1" d="M87.937,39.981A15.926,15.926,0,0,0,72.006,24.05V24H32.931v.05A15.926,15.926,0,0,0,17,39.981V79.005A15.937,15.937,0,0,0,32.931,94.936V95H72.006v-.084A15.926,15.926,0,0,0,87.937,78.988H88V39.981Z" transform="translate(-17 -24)"/>
          <g id="Group_12" data-name="Group 12" transform="translate(17.703 9.215)">
            <g id="Group_11" data-name="Group 11">
              <path id="Path_28" data-name="Path 28" class="cls-2" d="M869.974,1219a33.961,33.961,0,0,0-16.02,4.021h0a1.693,1.693,0,0,0-.172.094,1.622,1.622,0,0,0-.782,1.33v.047c0,.031.016.078.016.125a41.326,41.326,0,0,0,4.881,18.93,28.72,28.72,0,0,0,10.888,11.186v.016c.094.047.172.094.266.141h0a2.276,2.276,0,0,0,.923.2,2.138,2.138,0,0,0,.954-.219c.078-.031.141-.078.2-.109a28.806,28.806,0,0,0,10.935-11.217,41.932,41.932,0,0,0,4.9-19.978A33.646,33.646,0,0,0,869.974,1219Z" transform="translate(-853 -1209.52)"/>
              <path id="Path_29" data-name="Path 29" class="cls-1" d="M1126.891,1469a25.142,25.142,0,0,0-12.171,3.16h0c-.047.015-.094.047-.141.062a1.309,1.309,0,0,0-.579,1.048v.125a33.2,33.2,0,0,0,3.708,14.831,22.43,22.43,0,0,0,8.292,8.761h0a1.185,1.185,0,0,0,.188.11h.016a1.439,1.439,0,0,0,.688.156,1.644,1.644,0,0,0,.735-.172.63.63,0,0,0,.141-.078,22.289,22.289,0,0,0,8.307-8.776,33.34,33.34,0,0,0,3.723-15.645A25.107,25.107,0,0,0,1126.891,1469Z" transform="translate(-1109.917 -1455.608)"/>
              <path id="Path_30" data-name="Path 30" class="cls-3" d="M1950.062,1665H1950v22.121c.016,0,.047.016.063.016a1.219,1.219,0,0,0,.532-.141.737.737,0,0,1,.11-.063,17.059,17.059,0,0,0,6.039-6.883,27.948,27.948,0,0,0,2.707-12.234A17.189,17.189,0,0,0,1950.062,1665Z" transform="translate(-1932.838 -1648.542)"/>
              <g id="Group_10" data-name="Group 10" transform="translate(19.384)">
                <g id="Group_7" data-name="Group 7">
                  <path id="Path_31" data-name="Path 31" class="cls-1" d="M2092,625.046a11.726,11.726,0,0,0,2.08,6.665c1.815,3.379,7.713,12.156,10.31,12.156,3.02,0,8.933-9.277,10.826-12.985a12.02,12.02,0,0,0,.595-1.189h.015a11.86,11.86,0,0,0,.955-4.647,12.4,12.4,0,0,0-24.781,0Z" transform="translate(-2092 -613)"/>
                </g>
                <g id="Group_8" data-name="Group 8" transform="translate(3.004 3.739)">
                  <path id="Path_32" data-name="Path 32" class="cls-2" d="M2284,861.121a8.907,8.907,0,0,0,1.564,5.053c1.377,2.566,5.851,9.214,7.822,9.214,2.284,0,6.774-7.024,8.2-9.84a7.87,7.87,0,0,0,.454-.892v-.016h0a8.8,8.8,0,0,0,.736-3.52,9.39,9.39,0,0,0-18.773,0Z" transform="translate(-2284 -852)"/>
                </g>
                <g id="Group_9" data-name="Group 9" transform="translate(8.151 8.73)">
                  <path id="Path_33" data-name="Path 33" class="cls-1" d="M2613,1175.286a4.233,4.233,0,1,0,4.256-4.286A4.288,4.288,0,0,0,2613,1175.286Z" transform="translate(-2612.999 -1171)"/>
                </g>
              </g>
            </g>
          </g>
        </g>
      </g>
    </g>
    <text id="SAFEZONE" class="cls-4" transform="translate(886 7849)"><tspan x="0" y="0">SAFE</tspan><tspan class="cls-3" y="0">ZONE</tspan></text>
  </g>
</svg>
