<svg xmlns="http://www.w3.org/2000/svg" viewBox="0 0 30 32.118">
  <defs>
    <style>
      .cls-1 {
        fill: #fff;
      }
    </style>
  </defs>
  <g id="refresh-button" transform="translate(-16.062)">
    <g id="Group_19" data-name="Group 19" transform="translate(16.062)">
      <path id="Path_209" data-name="Path 209" class="cls-1" d="M18.65,13.424a2.565,2.565,0,0,0,2.365-1.572,10.907,10.907,0,0,1,10.047-6.7,10.757,10.757,0,0,1,6.607,2.27l-1.435.222a1.12,1.12,0,0,0-.288,2.128l7.894,3.551a1.12,1.12,0,0,0,1.58-1.016l.041-8.7a1.12,1.12,0,0,0-2.052-.626L42.32,4.621A16.042,16.042,0,0,0,16.267,9.826a2.589,2.589,0,0,0,2.383,3.6Z" transform="translate(-16.062)"/>
      <path id="Path_210" data-name="Path 210" class="cls-1" d="M54.16,284.75a2.574,2.574,0,0,0-4.522.413,10.907,10.907,0,0,1-10.047,6.7,10.757,10.757,0,0,1-6.607-2.27l1.435-.222a1.12,1.12,0,0,0,.288-2.128l-7.894-3.551a1.12,1.12,0,0,0-1.58,1.016l-.041,8.7a1.12,1.12,0,0,0,2.052.626l1.088-1.635a16.042,16.042,0,0,0,26.053-5.205A2.587,2.587,0,0,0,54.16,284.75Z" transform="translate(-24.591 -264.896)"/>
    </g>
  </g>
</svg>
